<?xml version="1.0" encoding="UTF-8" standalone="no"?>
<svg
   xmlns:dc="http://purl.org/dc/elements/1.1/"
   xmlns:cc="http://creativecommons.org/ns#"
   xmlns:rdf="http://www.w3.org/1999/02/22-rdf-syntax-ns#"
   xmlns:svg="http://www.w3.org/2000/svg"
   xmlns="http://www.w3.org/2000/svg"
   xmlns:sodipodi="http://sodipodi.sourceforge.net/DTD/sodipodi-0.dtd"
   xmlns:inkscape="http://www.inkscape.org/namespaces/inkscape"
   version="1.1"
   id="svg2"
   xml:space="preserve"
   width="282.88266"
   height="68.468399"
   viewBox="0 0 282.88266 68.468399"
   sodipodi:docname="littlejonlogo.ai"><metadata
     id="metadata8"><rdf:RDF><cc:Work
         rdf:about=""><dc:format>image/svg+xml</dc:format><dc:type
           rdf:resource="http://purl.org/dc/dcmitype/StillImage" /></cc:Work></rdf:RDF></metadata><defs
     id="defs6"><clipPath
       clipPathUnits="userSpaceOnUse"
       id="clipPath18"><path
         d="M 0,51.351 H 212.162 V 0 H 0 Z"
         id="path16" /></clipPath></defs><sodipodi:namedview
     pagecolor="#ffffff"
     bordercolor="#666666"
     borderopacity="1"
     objecttolerance="10"
     gridtolerance="10"
     guidetolerance="10"
     inkscape:pageopacity="0"
     inkscape:pageshadow="2"
     inkscape:window-width="640"
     inkscape:window-height="480"
     id="namedview4" /><g
     id="g10"
     inkscape:groupmode="layer"
     inkscape:label="littlejonlogo"
     transform="matrix(1.3333333,0,0,-1.3333333,0,68.4684)"><g
       id="g12"><g
         id="g14"
         clip-path="url(#clipPath18)"><g
           id="g20"
           transform="translate(163.3101,22.7325)"><path
             d="M 0,0 C -1.443,-4.492 1.202,-10.14 5.633,-12.108 10.02,-14.057 16.231,-12.261 18.528,-8.33 12.296,-5.528 6.15,-2.766 0,0 m 3.276,-14.233 c -0.152,0.136 -0.287,0.299 -0.458,0.405 -5.222,3.231 -7.517,10.281 -5.205,16.011 0.575,1.423 1.048,1.615 2.466,0.979 6.223,-2.796 12.445,-5.595 18.668,-8.392 0.367,-0.165 0.733,-0.33 1.174,-0.528 0.228,0.508 0.397,0.883 0.566,1.259 3.28,7.293 6.551,14.591 9.848,21.877 0.352,0.779 0.77,1.559 1.305,2.221 1.546,1.915 3.65,2.296 5.964,1.981 0.568,-0.255 1.136,-0.511 1.706,-0.767 0.139,-0.141 0.267,-0.297 0.42,-0.422 2.02,-1.656 2.738,-4.654 1.645,-6.841 -0.373,-0.747 -0.922,-1.139 -1.755,-0.835 -0.842,0.307 -1.155,0.931 -0.901,1.814 0.086,0.298 0.175,0.598 0.222,0.904 0.296,1.893 -1.2,3.497 -3.113,3.349 -1.426,-0.11 -2.188,-1.019 -2.73,-2.227 C 29.47,8.47 25.804,0.402 22.212,-7.699 c -1.961,-4.422 -5.409,-6.838 -10.019,-7.828 -2.242,-0.482 -4.444,-0.198 -6.642,0.271 -0.759,0.341 -1.517,0.682 -2.275,1.023"
             style="fill:#63cbe5;fill-opacity:1;fill-rule:nonzero;stroke:none"
             id="path22" /></g><g
           id="g24"
           transform="translate(180.605,11.6593)"><path
             d="M 0,0 C -6.232,2.802 -12.378,5.564 -18.528,8.329 -19.31,5.311 -16.09,0.94 -11.662,-1.035 -7.278,-2.99 -1.657,-2.509 0,0"
             style="fill:#63cbe5;fill-opacity:1;fill-rule:nonzero;stroke:none"
             id="path26" /></g><g
           id="g28"
           transform="translate(171.7828,43.5182)"><path
             d="m 0,0 c -0.254,-0.454 -0.513,-0.904 -0.761,-1.36 -0.986,-1.818 -0.801,-3.584 0.324,-5.253 0.781,-1.156 1.646,-2.255 2.483,-3.372 1.084,-1.447 1.96,-2.988 2.299,-4.793 0.444,-2.374 -0.196,-4.413 -1.941,-6.068 -0.648,-0.614 -1.41,-1.109 -2.12,-1.658 -0.036,0.03 -0.072,0.061 -0.108,0.091 0.048,0.119 0.092,0.239 0.144,0.355 0.485,1.063 0.93,2.136 1.116,3.305 0.253,1.595 -0.092,3.07 -0.911,4.421 -0.75,1.237 -1.583,2.423 -2.401,3.617 -0.972,1.414 -1.806,2.89 -2.072,4.613 -0.304,1.97 0.313,3.624 1.858,4.882 0.622,0.506 1.339,0.894 2.013,1.335 C -0.052,0.077 -0.026,0.038 0,0"
             style="fill:#63cbe5;fill-opacity:1;fill-rule:nonzero;stroke:none"
             id="path30" /></g><g
           id="g32"
           transform="translate(177.4009,41.2848)"><path
             d="m 0,0 c -0.293,-0.738 -0.636,-1.398 -0.814,-2.101 -0.248,-0.973 0.135,-1.857 0.683,-2.642 0.626,-0.894 1.327,-1.735 1.971,-2.618 0.756,-1.038 1.323,-2.16 1.459,-3.467 0.185,-1.786 -0.528,-3.162 -1.898,-4.245 -0.301,-0.24 -0.633,-0.441 -1.011,-0.604 0.137,0.333 0.27,0.668 0.412,0.999 0.739,1.733 0.61,3.39 -0.445,4.958 -0.638,0.949 -1.317,1.869 -1.941,2.827 -0.622,0.956 -1.073,1.984 -1.104,3.156 -0.034,1.308 0.56,2.293 1.576,3.049 C -0.764,-0.429 -0.371,-0.227 0,0"
             style="fill:#63cbe5;fill-opacity:1;fill-rule:nonzero;stroke:none"
             id="path34" /></g><g
           id="g36"
           transform="translate(166.6236,37.3155)"><path
             d="m 0,0 c -0.216,-0.492 -0.427,-0.951 -0.62,-1.417 -0.416,-1.005 -0.238,-1.973 0.341,-2.83 0.602,-0.891 1.298,-1.722 1.979,-2.557 0.909,-1.114 1.679,-2.289 1.923,-3.745 0.27,-1.606 -0.203,-2.965 -1.352,-4.088 -0.387,-0.378 -0.836,-0.691 -1.257,-1.035 -0.032,0.022 -0.064,0.044 -0.095,0.066 0.108,0.294 0.211,0.59 0.324,0.883 0.606,1.564 0.647,3.099 -0.272,4.564 -0.391,0.622 -0.821,1.222 -1.264,1.808 -0.728,0.962 -1.485,1.898 -1.944,3.038 C -3.17,-2.999 -2.26,-1.013 0,0"
             style="fill:#63cbe5;fill-opacity:1;fill-rule:nonzero;stroke:none"
             id="path38" /></g><path
           d="m 10.438,38.401 h 3.965 V 11.466 h -3.965 z"
           style="fill:#63cbe5;fill-opacity:1;fill-rule:nonzero;stroke:none"
           id="path40" /><path
           d="m 19.678,30.022 h 3.965 V 11.467 h -3.965 z m 1.983,3.516 c -0.749,0 -1.366,0.231 -1.852,0.692 -0.487,0.462 -0.73,1.041 -0.73,1.74 0,0.698 0.243,1.278 0.73,1.739 0.486,0.462 1.103,0.692 1.852,0.692 0.748,0 1.365,-0.23 1.851,-0.692 0.487,-0.461 0.73,-1.041 0.73,-1.739 0,-0.699 -0.243,-1.278 -0.73,-1.74 -0.486,-0.461 -1.103,-0.692 -1.851,-0.692"
           style="fill:#63cbe5;fill-opacity:1;fill-rule:nonzero;stroke:none"
           id="path42" /><g
           id="g44"
           transform="translate(36.6612,11.4669)"><path
             d="M 0,0 C -1.821,0 -3.268,0.442 -4.339,1.328 -5.412,2.213 -5.948,3.79 -5.948,6.06 v 9.165 h -3.18 v 3.33 h 3.18 l 0.487,4.714 h 3.478 v -4.714 h 5.238 v -3.33 H -1.983 V 6.06 c 0,-1.023 0.218,-1.727 0.655,-2.114 0.436,-0.386 1.191,-0.58 2.263,-0.58 H 3.068 L 3.068,0 Z"
             style="fill:#63cbe5;fill-opacity:1;fill-rule:nonzero;stroke:none"
             id="path46" /></g><g
           id="g48"
           transform="translate(51.7745,11.4669)"><path
             d="M 0,0 C -1.821,0 -3.268,0.442 -4.339,1.328 -5.412,2.213 -5.948,3.79 -5.948,6.06 v 9.165 h -3.18 v 3.33 h 3.18 l 0.486,4.714 h 3.479 v -4.714 h 5.237 v -3.33 H -1.983 V 6.06 c 0,-1.023 0.218,-1.727 0.655,-2.114 0.436,-0.386 1.19,-0.58 2.263,-0.58 H 3.067 L 3.067,0 Z"
             style="fill:#63cbe5;fill-opacity:1;fill-rule:nonzero;stroke:none"
             id="path50" /></g><path
           d="m 59.106,38.401 h 3.965 V 11.466 h -3.965 z"
           style="fill:#63cbe5;fill-opacity:1;fill-rule:nonzero;stroke:none"
           id="path52" /><g
           id="g54"
           transform="translate(76.7632,27.2159)"><path
             d="M 0,0 C -1.322,0 -2.494,-0.393 -3.517,-1.178 -4.54,-1.964 -5.163,-3.143 -5.387,-4.714 H 5.087 C 5.013,-3.268 4.501,-2.12 3.554,-1.272 2.606,-0.424 1.421,0 0,0 m 0,-16.198 c -1.821,0 -3.436,0.405 -4.845,1.216 -1.409,0.81 -2.512,1.938 -3.31,3.385 -0.799,1.447 -1.198,3.129 -1.198,5.05 0,1.945 0.394,3.653 1.179,5.126 0.785,1.471 1.882,2.618 3.292,3.441 1.409,0.823 3.049,1.234 4.919,1.234 1.82,0 3.404,-0.405 4.751,-1.215 C 6.135,1.228 7.183,0.15 7.931,-1.197 8.679,-2.544 9.053,-4.028 9.053,-5.648 9.053,-5.898 9.047,-6.167 9.034,-6.453 9.021,-6.74 9.003,-7.059 8.979,-7.407 H -5.462 c 0.125,-1.796 0.717,-3.161 1.777,-4.096 1.06,-0.935 2.288,-1.403 3.685,-1.403 1.122,0 2.063,0.255 2.824,0.766 0.761,0.511 1.328,1.203 1.702,2.077 H 8.492 C 7.993,-11.81 7.001,-13.269 5.518,-14.44 4.034,-15.612 2.194,-16.198 0,-16.198"
             style="fill:#63cbe5;fill-opacity:1;fill-rule:nonzero;stroke:none"
             id="path56" /></g><g
           id="g58"
           transform="translate(96.8145,11.0177)"><path
             d="M 0,0 C -2.543,0 -4.583,0.717 -6.116,2.151 -7.65,3.585 -8.417,5.624 -8.417,8.268 h 4.789 c 0.024,-1.223 0.311,-2.196 0.86,-2.918 0.548,-0.724 1.434,-1.085 2.656,-1.085 1.147,0 1.983,0.342 2.507,1.029 0.523,0.685 0.785,1.59 0.785,2.712 v 18.63 H 7.968 V 8.006 C 7.968,5.437 7.251,3.46 5.817,2.076 4.383,0.692 2.444,0 0,0"
             style="fill:#63cbe5;fill-opacity:1;fill-rule:nonzero;stroke:none"
             id="path60" /></g><g
           id="g62"
           transform="translate(118.6617,15.17)"><path
             d="m 0,0 c 1.247,0 2.332,0.468 3.255,1.403 0.922,0.935 1.384,2.326 1.384,4.171 0,1.846 -0.462,3.237 -1.384,4.171 -0.923,0.936 -1.996,1.403 -3.218,1.403 -1.271,0 -2.363,-0.467 -3.273,-1.403 -0.91,-0.934 -1.366,-2.325 -1.366,-4.171 0,-1.845 0.456,-3.236 1.366,-4.171 C -2.326,0.468 -1.247,0 0,0 m 0,-4.152 c -1.796,0 -3.411,0.411 -4.845,1.234 -1.434,0.823 -2.568,1.964 -3.404,3.423 -0.836,1.459 -1.253,3.148 -1.253,5.069 0,1.92 0.424,3.61 1.272,5.069 0.847,1.459 1.989,2.6 3.423,3.423 1.434,0.823 3.049,1.234 4.844,1.234 1.771,0 3.373,-0.411 4.808,-1.234 C 6.278,13.243 7.413,12.102 8.249,10.643 9.084,9.184 9.502,7.494 9.502,5.574 9.502,3.653 9.084,1.964 8.249,0.505 7.413,-0.954 6.271,-2.095 4.826,-2.918 3.379,-3.741 1.771,-4.152 0,-4.152"
             style="fill:#63cbe5;fill-opacity:1;fill-rule:nonzero;stroke:none"
             id="path64" /></g><g
           id="g66"
           transform="translate(132.4273,11.4669)"><path
             d="m 0,0 v 18.555 h 4.228 l 0.374,-3.143 c 0.574,1.097 1.403,1.97 2.488,2.619 1.085,0.648 2.362,0.972 3.834,0.972 2.294,0 4.078,-0.723 5.349,-2.169 1.273,-1.447 1.909,-3.567 1.909,-6.359 V 0 h -4.789 v 10.025 c 0,1.596 -0.325,2.819 -0.972,3.666 -0.65,0.848 -1.659,1.272 -3.03,1.272 C 8.044,14.963 6.94,14.489 6.08,13.542 5.219,12.594 4.789,11.272 4.789,9.576 V 0 Z"
             style="fill:#63cbe5;fill-opacity:1;fill-rule:nonzero;stroke:none"
             id="path68" /></g></g></g></g></svg>
